<svg width="30" height="30" viewBox="0 0 30 30" fill="none" xmlns="http://www.w3.org/2000/svg">
<path d="M30.0005 14.7965C30.0005 6.62588 23.3746 0 15.2039 0C7.03329 0 0.40741 6.62588 0.40741 14.7965C0.40741 22.9672 7.03329 29.5931 15.2039 29.5931C15.2909 29.5931 15.3773 29.5912 15.464 29.5897V18.0712H12.2851V14.3664H15.464V11.6402C15.464 8.47838 17.3942 6.75751 20.2146 6.75751C21.5652 6.75751 22.7262 6.8582 23.0646 6.90313V10.2076H21.1197C19.5854 10.2076 19.2882 10.9369 19.2882 12.0068V14.3664H22.9571L22.4789 18.0712H19.2882V29.0214C25.473 27.2484 30.0005 21.5504 30.0005 14.7965Z" fill="#B6B0E3"/>
</svg>
