<svg width="30" height="31" viewBox="0 0 30 31" fill="none" xmlns="http://www.w3.org/2000/svg">
<path d="M15.203 0.55426C7.03237 0.55426 0.406494 7.18014 0.406494 15.3508C0.406494 23.5214 7.03237 30.1473 15.203 30.1473C23.3737 30.1473 29.9995 23.5214 29.9995 15.3508C29.9995 7.18014 23.3737 0.55426 15.203 0.55426ZM23.6482 18.8537C23.6071 19.7582 23.4633 20.3757 23.2533 20.9162C22.8119 22.0575 21.9097 22.9597 20.7684 23.4011C20.2281 23.6111 19.6104 23.7547 18.7062 23.796C17.8001 23.8373 17.5107 23.8472 15.2032 23.8472C12.8956 23.8472 12.6064 23.8373 11.7001 23.796C10.7959 23.7547 10.1781 23.6111 9.63784 23.4011C9.07069 23.1877 8.55727 22.8534 8.13281 22.421C7.70067 21.9968 7.3663 21.4831 7.15294 20.9162C6.94297 20.3759 6.79915 19.7582 6.75805 18.8539C6.71629 17.9477 6.70658 17.6582 6.70658 15.3508C6.70658 13.0433 6.71629 12.7539 6.75783 11.8479C6.79892 10.9434 6.94251 10.3259 7.15249 9.78538C7.36585 9.21846 7.70045 8.70481 8.13281 8.28058C8.55705 7.84821 9.07069 7.51384 9.63762 7.30048C10.1781 7.09051 10.7956 6.94691 11.7001 6.90559C12.6061 6.86428 12.8956 6.85434 15.203 6.85434C17.5105 6.85434 17.7999 6.86428 18.706 6.90582C19.6104 6.94691 20.2279 7.09051 20.7684 7.30025C21.3354 7.51361 21.849 7.84821 22.2735 8.28058C22.7056 8.70504 23.0402 9.21846 23.2533 9.78538C23.4635 10.3259 23.6071 10.9434 23.6484 11.8479C23.6898 12.7539 23.6995 13.0433 23.6995 15.3508C23.6995 17.6582 23.6898 17.9477 23.6482 18.8537Z" fill="#B6B0E3"/>
</svg>
