<svg width="30" height="31" viewBox="0 0 30 31" fill="none" xmlns="http://www.w3.org/2000/svg">
<path d="M15.2039 0.769958C7.03329 0.769958 0.40741 7.39584 0.40741 15.5665C0.40741 23.7371 7.03329 30.363 15.2039 30.363C23.3746 30.363 30.0005 23.7371 30.0005 15.5665C30.0005 7.39584 23.3746 0.769958 15.2039 0.769958ZM24.4495 15.5816C24.4495 15.5816 24.4495 18.5824 24.0688 20.0294C23.8555 20.8214 23.231 21.4459 22.439 21.6591C20.992 22.04 15.2039 22.04 15.2039 22.04C15.2039 22.04 9.43104 22.04 7.96891 21.644C7.17688 21.4308 6.55238 20.8061 6.33903 20.0141C5.95814 18.5824 5.95814 15.5665 5.95814 15.5665C5.95814 15.5665 5.95814 12.5659 6.33903 11.1189C6.55216 10.3269 7.19201 9.68702 7.96891 9.47389C9.41591 9.093 15.2039 9.093 15.2039 9.093C15.2039 9.093 20.992 9.093 22.439 9.48902C23.231 9.70215 23.8555 10.3269 24.0688 11.1189C24.4649 12.5659 24.4495 15.5816 24.4495 15.5816Z" fill="#B6B0E3"/>
</svg>
